<svg xmlns="http://www.w3.org/2000/svg" width="820" height="190" viewBox="0 0 820 190" role="img" aria-labelledby="title">
<title id="title">shotium 0.7.3 against Puppeteer 25.8.0 + Chrome 152.0.7977.42: 1,000 screenshots at concurrency 4 on linux-x64</title>
<g transform="translate(0 0)"><rect x="0.5" y="0.5" width="395" height="149" rx="14" fill="#1b1b1f" stroke="#2c2c33"/><text x="24" y="50" font-family="-apple-system, 'Segoe UI', Roboto, 'Helvetica Neue', Arial, 'PingFang SC', 'Microsoft YaHei', sans-serif" font-size="19" font-weight="700" fill="#ffffff">1,000 captures<tspan font-weight="400" fill="#c6c6cd"> – </tspan><tspan font-size="30" fill="#7cc4ff">4.2×</tspan><tspan font-size="15" font-weight="500" fill="#c6c6cd"> faster</tspan></text><circle cx="34" cy="88" r="10" fill="#2f7cf6"/><circle cx="34" cy="88" r="5.5" fill="none" stroke="#ffffff" stroke-width="2.2"/><circle cx="34" cy="88" r="2" fill="#ffffff"/><rect x="58" y="84" width="61" height="8" rx="4" fill="#7cc4ff"/><text x="127" y="92" font-family="-apple-system, 'Segoe UI', Roboto, 'Helvetica Neue', Arial, 'PingFang SC', 'Microsoft YaHei', sans-serif" font-size="11" fill="#b4b4bc">41.5 s</text><path d="M 34 118 L 25.34 113.00 A 10 10 0 0 1 42.66 113.00 Z" fill="#db4437"/><path d="M 34 118 L 42.66 113.00 A 10 10 0 0 1 34.00 128.00 Z" fill="#0f9d58"/><path d="M 34 118 L 34.00 128.00 A 10 10 0 0 1 25.34 113.00 Z" fill="#f4b400"/><circle cx="34" cy="118" r="4.6" fill="#ffffff"/><circle cx="34" cy="118" r="3.4" fill="#4285f4"/><rect x="58" y="114" width="256" height="8" rx="4" fill="#4a4a54"/><text x="322" y="122" font-family="-apple-system, 'Segoe UI', Roboto, 'Helvetica Neue', Arial, 'PingFang SC', 'Microsoft YaHei', sans-serif" font-size="11" fill="#b4b4bc">175 s</text></g>
<g transform="translate(424 0)"><rect x="0.5" y="0.5" width="395" height="149" rx="14" fill="#1b1b1f" stroke="#2c2c33"/><text x="24" y="50" font-family="-apple-system, 'Segoe UI', Roboto, 'Helvetica Neue', Arial, 'PingFang SC', 'Microsoft YaHei', sans-serif" font-size="19" font-weight="700" fill="#ffffff">Memory peak<tspan font-weight="400" fill="#c6c6cd"> – </tspan><tspan font-size="30" fill="#7cc4ff">8.7×</tspan><tspan font-size="15" font-weight="500" fill="#c6c6cd"> less memory</tspan></text><circle cx="34" cy="88" r="10" fill="#2f7cf6"/><circle cx="34" cy="88" r="5.5" fill="none" stroke="#ffffff" stroke-width="2.2"/><circle cx="34" cy="88" r="2" fill="#ffffff"/><rect x="58" y="84" width="30" height="8" rx="4" fill="#7cc4ff"/><text x="96" y="92" font-family="-apple-system, 'Segoe UI', Roboto, 'Helvetica Neue', Arial, 'PingFang SC', 'Microsoft YaHei', sans-serif" font-size="11" fill="#b4b4bc">359 MB</text><path d="M 34 118 L 25.34 113.00 A 10 10 0 0 1 42.66 113.00 Z" fill="#db4437"/><path d="M 34 118 L 42.66 113.00 A 10 10 0 0 1 34.00 128.00 Z" fill="#0f9d58"/><path d="M 34 118 L 34.00 128.00 A 10 10 0 0 1 25.34 113.00 Z" fill="#f4b400"/><circle cx="34" cy="118" r="4.6" fill="#ffffff"/><circle cx="34" cy="118" r="3.4" fill="#4285f4"/><rect x="58" y="114" width="256" height="8" rx="4" fill="#4a4a54"/><text x="322" y="122" font-family="-apple-system, 'Segoe UI', Roboto, 'Helvetica Neue', Arial, 'PingFang SC', 'Microsoft YaHei', sans-serif" font-size="11" fill="#b4b4bc">3.1 GB</text></g>
<text x="410" y="167" text-anchor="middle" font-family="-apple-system, 'Segoe UI', Roboto, 'Helvetica Neue', Arial, 'PingFang SC', 'Microsoft YaHei', sans-serif" font-size="11" fill="#8b8b95">1,000 screenshots at concurrency 4, 1280×720 PNG · linux-x64 GitHub Actions runner · every engine, every platform in the benchmark section below</text>
<text x="410" y="182" text-anchor="middle" font-family="-apple-system, 'Segoe UI', Roboto, 'Helvetica Neue', Arial, 'PingFang SC', 'Microsoft YaHei', sans-serif" font-size="11" fill="#8b8b95">shotium 0.7.3 vs Puppeteer 25.8.0 + Chrome 152.0.7977.42 · wall time of the batch · peak RSS of the process tree</text>
</svg>
